Coordinates
version=1
nRows=14
nColumns=24
inDegrees=yes

Units are S.I. units (second, meters, Newtons, ...)
Angles are in degrees.

endheader
time	pelvis_tilt	pelvis_list	pelvis_rotation	pelvis_tx	pelvis_ty	pelvis_tz	hip_flexion_r	hip_adduction_r	hip_rotation_r	knee_angle_r	ankle_angle_r	subtalar_angle_r	mtp_angle_r	hip_flexion_l	hip_adduction_l	hip_rotation_l	knee_angle_l	ankle_angle_l	subtalar_angle_l	mtp_angle_l	lumbar_extension	lumbar_bending	lumbar_rotation
      0.87466667	      1.61714559	     -6.63817548	      8.31150503	     -0.43562486	      1.02491613	      0.36023426	     11.01078079	     12.35421031	     -2.06963757	    -17.02299713	      3.45463750	    -13.52926707	      5.42160544	     13.83113583	    -10.51462938	     -0.13438193	    -70.15626272	     -5.70929109	     -4.39812311	      2.33480165	     -3.77103866	      4.11703679	     -4.73345003
      0.87883333	      1.59432419	     -6.52405234	      8.24883874	     -0.43077465	      1.02579039	      0.36037194	     10.53160960	     12.28906259	     -1.97885371	    -16.67706532	      3.53032397	    -13.44741106	      5.42970204	     14.46832552	    -10.37286617	     -0.16708441	    -70.10374433	     -5.00324649	     -4.65697333	      2.28357713	     -3.82568884	      3.98176537	     -4.64925610
      0.88300000	      1.58524738	     -6.40924496	      8.13699866	     -0.42595033	      1.02665666	      0.36060756	     10.03419294	     12.23879932	     -1.80106981	    -16.32703303	      3.54808783	    -13.39139782	      5.69306003	     15.06869374	    -10.25277288	     -0.25487901	    -70.01291890	     -4.14076163	     -4.62843232	     -1.00377878	     -3.91500831	      3.82228143	     -4.29925739
      0.88716667	      1.59788534	     -6.30075286	      8.05720480	     -0.42113130	      1.02751280	      0.36076771	      9.51874714	     12.18571659	     -1.69146808	    -15.98562706	      3.69695524	    -13.27729827	      5.69886525	     15.64169544	    -10.12467929	     -0.30097944	    -69.85923480	     -3.43946033	     -4.72712369	     -1.01346578	     -4.03042744	      3.70493203	     -4.14814387
      0.89133333	      1.59925587	     -6.18599039	      7.94417637	     -0.41630946	      1.02835316	      0.36095989	      9.01007869	     12.12714903	     -1.53925775	    -15.63773465	      3.78799576	    -13.17647656	      5.70192370	     16.19971109	     -9.99398934	     -0.38098438	    -69.63901945	     -2.78207495	     -4.80446735	     -1.03695573	     -4.12697464	      3.56561421	     -3.93630502
      0.89550000	      1.59630862	     -6.06321948	      7.81475964	     -0.41151189	      1.02916789	      0.36115041	      8.51209873	     12.05683622	     -1.37678185	    -15.30488551	      3.86305909	    -13.08281462	      5.70367507	     16.74346037	     -9.84776601	     -0.46916476	    -69.36113011	     -2.16517341	     -4.92030127	     -1.05482599	     -4.23870092	      3.42945229	     -3.76780756
      0.89966667	      1.62161304	     -5.93767833	      7.67627356	     -0.40667240	      1.03000868	      0.36136962	      7.96471031	     11.99087677	     -1.18699883	    -14.93892088	      3.95405879	    -12.99056123	      5.70401344	     17.23070367	     -9.71082434	     -0.57150828	    -69.01514277	     -1.59170386	     -4.94713364	     -1.09865737	     -4.34219718	      3.27106353	     -3.47821496
      0.90383333	      1.66271982	     -5.80652238	      7.52347879	     -0.40185451	      1.03085531	      0.36157847	      7.40439141	     11.91746542	     -0.98768407	    -14.58168526	      4.02823697	    -12.90031142	      5.70194616	     17.68011975	     -9.56697635	     -0.68648233	    -68.61083394	     -1.05444580	     -5.01308387	     -1.15002344	     -4.48634873	      3.12631917	     -3.22358625
      0.90800000	      1.67558224	     -5.67778336	      7.35223303	     -0.39705601	      1.03161713	      0.36181008	      6.88372361	     11.84103557	     -0.77538162	    -14.24276699	      4.11158281	    -12.81264140	      5.69860644	     18.14531349	     -9.42274194	     -0.80956478	    -68.15573613	     -0.54378685	     -5.06640822	     -1.19985476	     -4.60139585	      2.97207833	     -2.97414392
      0.91216667	      1.71560856	     -5.53298516	      7.17168594	     -0.39224481	      1.03241859	      0.36203650	      6.32673685	     11.74665187	     -0.55485827	    -13.89651806	      4.19223238	    -12.71586336	      5.69354914	     18.55176619	     -9.26362344	     -0.94251214	    -67.63094192	     -0.06947861	     -5.12220439	     -1.25124871	     -4.74434978	      2.80980631	     -2.71321696
      0.91633333	      1.73989102	     -5.40063276	      6.97224906	     -0.38746819	      1.03313519	      0.36228347	      5.80037214	     11.66187552	     -0.31746578	    -13.57187941	      4.27544713	    -12.62371509	      5.68830478	     18.96462831	     -9.12035716	     -1.08781219	    -67.06435934	      0.39599280	     -5.16621015	     -1.29097877	     -4.88217101	      2.66333821	     -2.47223930
      0.92050000	      1.78779384	     -5.25875541	      6.76730204	     -0.38267147	      1.03388056	      0.36252334	      5.24254177	     11.56454525	     -0.07753162	    -13.24063895	      4.35588027	    -12.52054211	      5.68266377	     19.32435115	     -8.96746233	     -1.23632569	    -66.42907744	      0.83021172	     -5.21564763	     -1.32366000	     -5.03830891	      2.50926004	     -2.22698920
      0.92466667	      1.83581713	     -5.13458793	      6.56589232	     -0.37786437	      1.03457607	      0.36276217	      4.67955776	     11.48338538	      0.16176986	    -12.88864663	      4.43449054	    -12.42659472	      5.67033133	     19.67439766	     -8.83722242	     -1.38116457	    -65.74762043	      1.22913474	     -5.24505911	     -1.37309440	     -5.16804700	      2.36103707	     -1.88884999
      0.92883333	      1.87172474	     -5.00895678	      6.34403236	     -0.37309008	      1.03520723	      0.36302207	      4.14428485	     11.39486501	      0.41436783	    -12.56700546	      4.52815762	    -12.32860615	      5.65853294	     20.01882914	     -8.70688977	     -1.53956154	    -65.01570598	      1.62036255	     -5.26876994	     -1.41032472	     -5.30701168	      2.21429480	     -1.62514208
